<?xml version="1.0" encoding="UTF-8" standalone="no"?><!DOCTYPE svg PUBLIC "-//W3C//DTD SVG 1.1//EN" "http://www.w3.org/Graphics/SVG/1.1/DTD/svg11.dtd"><svg width="100%" height="100%" viewBox="0 0 100 61" version="1.1" xmlns="http://www.w3.org/2000/svg" xmlns:xlink="http://www.w3.org/1999/xlink" xml:space="preserve" style="fill-rule:evenodd;clip-rule:evenodd;stroke-linejoin:round;stroke-miterlimit:2;"><rect id="aws-logo" x="0" y="0" width="99.126" height="60.825" style="fill:none;"/><g><g><path d="M28.73,22.595c0,1.163 0.126,2.106 0.346,2.798c0.252,0.692 0.566,1.446 1.006,2.264c0.158,0.251 0.22,0.503 0.22,0.723c0,0.314 -0.188,0.628 -0.597,0.943l-1.981,1.32c-0.283,0.189 -0.566,0.283 -0.817,0.283c-0.315,0 -0.629,-0.157 -0.943,-0.44c-0.441,-0.471 -0.818,-0.974 -1.132,-1.478c-0.315,-0.534 -0.629,-1.131 -0.975,-1.854c-2.452,2.892 -5.533,4.338 -9.243,4.338c-2.641,0 -4.748,-0.754 -6.288,-2.263c-1.541,-1.51 -2.327,-3.522 -2.327,-6.037c0,-2.672 0.943,-4.842 2.861,-6.477c1.918,-1.635 4.465,-2.452 7.703,-2.452c1.069,0 2.169,0.094 3.333,0.252c1.163,0.157 2.358,0.408 3.615,0.691l0,-2.295c0,-2.389 -0.503,-4.056 -1.477,-5.03c-1.006,-0.975 -2.704,-1.447 -5.125,-1.447c-1.101,0 -2.232,0.126 -3.396,0.409c-1.163,0.283 -2.295,0.629 -3.395,1.069c-0.503,0.22 -0.881,0.346 -1.101,0.409c-0.22,0.063 -0.377,0.094 -0.503,0.094c-0.44,0 -0.66,-0.314 -0.66,-0.974l0,-1.541c0,-0.503 0.063,-0.88 0.22,-1.1c0.157,-0.221 0.44,-0.441 0.88,-0.661c1.101,-0.566 2.421,-1.037 3.962,-1.415c1.541,-0.408 3.175,-0.597 4.905,-0.597c3.741,0 6.476,0.849 8.237,2.547c1.729,1.698 2.609,4.276 2.609,7.734l0,10.187l0.063,-0Zm-12.764,4.779c1.037,-0 2.106,-0.189 3.238,-0.566c1.132,-0.378 2.138,-1.069 2.987,-2.012c0.503,-0.598 0.88,-1.258 1.069,-2.013c0.188,-0.754 0.314,-1.666 0.314,-2.735l0,-1.32c-0.912,-0.221 -1.886,-0.409 -2.892,-0.535c-1.006,-0.126 -1.981,-0.189 -2.956,-0.189c-2.106,0 -3.647,0.409 -4.684,1.258c-1.038,0.849 -1.541,2.044 -1.541,3.616c0,1.477 0.377,2.578 1.163,3.332c0.755,0.786 1.855,1.164 3.302,1.164Zm25.246,3.395c-0.566,0 -0.943,-0.094 -1.195,-0.314c-0.251,-0.189 -0.471,-0.629 -0.66,-1.226l-7.388,-24.304c-0.189,-0.629 -0.283,-1.037 -0.283,-1.257c-0,-0.503 0.251,-0.786 0.754,-0.786l3.081,-0c0.598,-0 1.007,0.094 1.227,0.314c0.251,0.189 0.44,0.629 0.628,1.226l5.282,20.814l4.905,-20.814c0.157,-0.629 0.346,-1.037 0.597,-1.226c0.252,-0.189 0.692,-0.314 1.258,-0.314l2.515,-0c0.598,-0 1.006,0.094 1.258,0.314c0.251,0.189 0.471,0.629 0.597,1.226l4.968,21.065l5.439,-21.065c0.189,-0.629 0.409,-1.037 0.629,-1.226c0.251,-0.189 0.66,-0.314 1.226,-0.314l2.924,-0c0.503,-0 0.786,0.251 0.786,0.786c-0,0.157 -0.032,0.314 -0.063,0.503c-0.031,0.188 -0.094,0.44 -0.22,0.786l-7.577,24.303c-0.189,0.629 -0.409,1.038 -0.66,1.226c-0.252,0.189 -0.661,0.315 -1.195,0.315l-2.704,-0c-0.597,-0 -1.006,-0.095 -1.258,-0.315c-0.251,-0.22 -0.471,-0.629 -0.597,-1.257l-4.873,-20.279l-4.842,20.247c-0.157,0.629 -0.346,1.038 -0.597,1.258c-0.252,0.22 -0.692,0.314 -1.258,0.314l-2.704,0Zm40.401,0.849c-1.635,0 -3.27,-0.189 -4.842,-0.566c-1.572,-0.377 -2.798,-0.786 -3.616,-1.258c-0.503,-0.282 -0.848,-0.597 -0.974,-0.88c-0.126,-0.283 -0.189,-0.597 -0.189,-0.88l0,-1.604c0,-0.66 0.252,-0.974 0.723,-0.974c0.189,-0 0.378,0.031 0.566,0.094c0.189,0.063 0.472,0.189 0.786,0.314c1.069,0.472 2.232,0.849 3.459,1.101c1.257,0.251 2.483,0.377 3.741,0.377c1.981,0 3.521,-0.346 4.59,-1.037c1.069,-0.692 1.635,-1.698 1.635,-2.987c0,-0.881 -0.283,-1.604 -0.849,-2.201c-0.566,-0.597 -1.635,-1.132 -3.175,-1.635l-4.559,-1.415c-2.295,-0.723 -3.993,-1.792 -5.03,-3.207c-1.038,-1.383 -1.572,-2.924 -1.572,-4.558c-0,-1.321 0.282,-2.484 0.848,-3.49c0.566,-1.006 1.321,-1.887 2.264,-2.578c0.943,-0.724 2.012,-1.258 3.27,-1.635c1.257,-0.378 2.578,-0.535 3.961,-0.535c0.692,0 1.415,0.032 2.107,0.126c0.723,0.094 1.383,0.22 2.043,0.346c0.629,0.157 1.227,0.314 1.793,0.503c0.565,0.189 1.006,0.377 1.32,0.566c0.44,0.251 0.755,0.503 0.943,0.786c0.189,0.251 0.283,0.597 0.283,1.037l0,1.478c0,0.66 -0.251,1.006 -0.723,1.006c-0.251,0 -0.66,-0.126 -1.195,-0.377c-1.792,-0.818 -3.804,-1.226 -6.036,-1.226c-1.792,-0 -3.207,0.283 -4.182,0.88c-0.974,0.597 -1.477,1.509 -1.477,2.798c-0,0.88 0.314,1.635 0.943,2.232c0.629,0.598 1.792,1.195 3.458,1.73l4.465,1.414c2.263,0.724 3.898,1.73 4.873,3.019c0.975,1.289 1.446,2.766 1.446,4.401c0,1.352 -0.283,2.578 -0.817,3.647c-0.566,1.069 -1.321,2.013 -2.295,2.767c-0.975,0.786 -2.138,1.352 -3.49,1.761c-1.415,0.44 -2.893,0.66 -4.496,0.66Z" style="fill:#fff;fill-rule:nonzero;"/><g><path d="M87.555,46.898c-10.344,7.64 -25.372,11.696 -38.294,11.696c-18.11,-0 -34.427,-6.697 -46.752,-17.827c-0.974,-0.88 -0.094,-2.075 1.069,-1.383c13.331,7.734 29.774,12.419 46.783,12.419c11.476,-0 24.083,-2.39 35.685,-7.294c1.729,-0.786 3.207,1.131 1.509,2.389Z" style="fill:#f90;"/><path d="M91.862,41.993c-1.32,-1.697 -8.74,-0.817 -12.104,-0.408c-1.006,0.125 -1.163,-0.755 -0.252,-1.415c5.911,-4.15 15.626,-2.956 16.758,-1.572c1.132,1.415 -0.314,11.13 -5.848,15.783c-0.849,0.723 -1.666,0.346 -1.289,-0.598c1.258,-3.112 4.056,-10.123 2.735,-11.79Z" style="fill:#f90;"/></g></g></g></svg>