<?xml version="1.0" encoding="utf-8"?>
<!-- Generator: Adobe Illustrator 27.5.0, SVG Export Plug-In . SVG Version: 6.00 Build 0)  -->
<svg version="1.1" id="Dark_background_logo" xmlns="http://www.w3.org/2000/svg" xmlns:xlink="http://www.w3.org/1999/xlink"
	 x="0px" y="0px" viewBox="0 0 685.2 165.4" style="enable-background:new 0 0 685.2 165.4;" xml:space="preserve">
<style type="text/css">
	.st0{fill-rule:evenodd;clip-rule:evenodd;fill:#29B5E8;}
	.st1{fill-rule:evenodd;clip-rule:evenodd;fill:#FFFFFF;}
	.st2{fill:#FFFFFF;}
</style>
<g>
	<g>
		<g>
			<path class="st0" d="M273.2,30.9c-1.6,1.1-3.1,2.2-4.5,3.5l9.2,9.2c0.8-0.7,1.6-1.4,2.5-2c1.2-0.8,2.4-1.5,3.7-2h0
				c1.3-0.5,2.7-1,4.1-1.2c1.4-0.3,2.8-0.4,4.3-0.4c6,0,11.5,2.4,15.4,6.4c2,2,3.6,4.4,4.7,7.1c1.1,2.6,1.7,5.4,1.7,8.3
				c0,2.9-0.6,5.7-1.7,8.3c-1.1,2.7-2.7,5.1-4.7,7.1c-2,2-4.4,3.6-7.1,4.7c-2.6,1.1-5.4,1.7-8.3,1.7c-1.6,0-3.2-0.2-4.6-0.4
				c-1.4-0.3-2.8-0.7-4-1.3c-1.3-0.6-2.5-1.4-3.8-2.3c-1.2-0.9-2.4-2-3.6-3.2h0l-25.1-25.1l-9.2,9.2l25.1,25.1v0
				c1.7,1.7,3.5,3.3,5.4,4.6c1.9,1.3,3.8,2.5,5.9,3.4c2.1,1,4.3,1.7,6.7,2.2c2.3,0.5,4.8,0.8,7.4,0.8c4.7,0,9.2-0.9,13.3-2.6
				c4.2-1.8,8.1-4.3,11.3-7.6c3.2-3.2,5.8-7,7.6-11.3c1.7-4.1,2.6-8.6,2.6-13.3c0-4.7-0.9-9.2-2.6-13.3c-1.8-4.2-4.3-8.1-7.6-11.3
				c-3.2-3.2-7-5.8-11.3-7.6c-4.1-1.7-8.6-2.6-13.3-2.6c-2.3,0-4.5,0.2-6.7,0.7c-2.2,0.5-4.4,1.1-6.5,2
				C277.1,28.5,275.1,29.6,273.2,30.9z"/>
			<path class="st1" d="M36.1,91.6c3.3,0,6.4-0.3,9.4-0.8c3-0.5,5.9-1.3,8.6-2.4c2.7-1.1,5.3-2.4,7.8-4c2.5-1.6,4.8-3.4,6.9-5.5l0,0
				c2.2-2.1,4.1-4.3,5.8-6.7c1.6-2.3,3-4.8,4.1-7.4c1.1-2.6,1.9-5.3,2.5-8.2c0.5-2.9,0.8-5.8,0.8-9c0-3.1-0.3-6.1-0.8-9
				c-0.5-2.9-1.4-5.6-2.5-8.2c-1.1-2.6-2.5-5.1-4.1-7.4c-1.6-2.3-3.6-4.6-5.8-6.7l0,0l0,0l0,0c-2.2-2.1-4.5-4-6.9-5.5
				c-2.4-1.6-5-2.9-7.8-4c-2.7-1.1-5.6-1.9-8.6-2.4c-3-0.5-6.2-0.8-9.4-0.8H0.7v87.9H36.1L36.1,91.6z M118.6,25.1L118.6,25.1
				c-2.2,0-4.4,0.2-6.4,0.6c-2,0.4-4,1-5.8,1.8c-1.9,0.8-3.6,1.8-5.3,3.1c-1.6,1.1-3.1,2.5-4.5,4l-0.3,0.3c-1.5,1.6-2.8,3.3-3.9,5.2
				c-1.1,1.8-2.1,3.7-2.8,5.8c-0.7,2-1.3,4.2-1.7,6.4c-0.4,2.2-0.6,4.6-0.6,7.1c0,5,0.7,9.5,2.2,13.5l0,0c1.5,4,3.7,7.7,6.6,11
				l0.1,0.1c1.5,1.6,3.1,3,4.8,4.2c1.7,1.2,3.5,2.2,5.3,3c1.9,0.8,3.8,1.4,5.9,1.8c2,0.4,4.2,0.6,6.4,0.6c1.8,0,3.6-0.1,5.3-0.4
				c1.7-0.3,3.4-0.7,5-1.3c1.6-0.6,3.2-1.3,4.8-2.2c1.5-0.9,3-1.9,4.5-3l0.6-0.5l1.8-1.4V87v0.8v3.9h13.2V27h-13.2v3.9v0.8V34
				l-1.8-1.4l-0.6-0.5c-1.4-1.2-2.9-2.2-4.5-3c-1.5-0.9-3.1-1.6-4.8-2.2c-1.6-0.6-3.3-1-5-1.3C122.2,25.2,120.4,25.1,118.6,25.1
				L118.6,25.1z M134.6,44.4L134.6,44.4c0.9,1,1.8,2.1,2.5,3.2l0,0c0.7,1.1,1.3,2.3,1.8,3.5c0.5,1.2,0.8,2.5,1.1,3.9
				c0.2,1.4,0.4,2.8,0.4,4.3c0,1.5-0.1,2.9-0.4,4.3c-0.2,1.4-0.6,2.7-1.1,3.9c-0.5,1.2-1.1,2.4-1.8,3.5l0,0
				c-0.7,1.1-1.5,2.2-2.5,3.2c-0.9,1-1.9,1.9-3,2.7c-1.1,0.8-2.2,1.4-3.3,1.9c-1.2,0.5-2.4,0.9-3.7,1.1c-1.3,0.2-2.6,0.4-3.9,0.4
				c-1.4,0-2.7-0.1-4-0.4c-1.3-0.3-2.5-0.6-3.7-1.1c-1.2-0.5-2.3-1.1-3.4-1.9c-1.1-0.8-2-1.6-3-2.6c-0.9-1-1.8-2.1-2.5-3.2
				c-0.7-1.1-1.3-2.3-1.7-3.6c-0.5-1.2-0.8-2.5-1-3.9c-0.2-1.4-0.3-2.8-0.3-4.2c0-1.5,0.1-2.9,0.3-4.2c0.2-1.4,0.6-2.7,1-3.9
				c0.5-1.3,1-2.4,1.7-3.6c0.7-1.1,1.5-2.2,2.5-3.2c0.9-1,1.9-1.9,3-2.6c1.1-0.8,2.2-1.4,3.4-1.9c1.2-0.5,2.4-0.9,3.7-1.1
				c1.3-0.3,2.6-0.4,4-0.4c1.4,0,2.7,0.1,3.9,0.4c1.3,0.2,2.5,0.6,3.7,1.1c1.2,0.5,2.3,1.1,3.3,1.9
				C132.6,42.6,133.6,43.4,134.6,44.4L134.6,44.4z M36.1,16.8L36.1,16.8c2.1,0,4.2,0.2,6.2,0.6c2,0.4,3.9,0.9,5.8,1.7
				c1.8,0.7,3.6,1.7,5.3,2.8c1.7,1.1,3.2,2.4,4.7,3.9c1.5,1.5,2.7,3,3.9,4.7c1.1,1.7,2,3.4,2.8,5.3c0.7,1.8,1.3,3.8,1.7,5.8
				c0.4,2,0.6,4.1,0.6,6.2c0,2.1-0.2,4.2-0.6,6.2h0c-0.4,2-0.9,3.9-1.7,5.7c-0.7,1.8-1.7,3.6-2.8,5.3c-1.1,1.7-2.4,3.3-3.9,4.8h0
				l0,0c-1.5,1.5-3,2.8-4.7,3.9c-1.7,1.1-3.4,2-5.3,2.8c-1.8,0.7-3.8,1.3-5.8,1.7c-2,0.4-4.1,0.6-6.2,0.6H16.6h-0.4h-1.1v-1.1V77
				V18.3v-0.4v-1.1h1.1h0.4H36.1z"/>
			<path class="st1" d="M159.1,38.3h8.1h0.4h1.1v1.1v0.4v32.1c0,1.4,0.1,2.8,0.4,4.1c0.3,1.3,0.6,2.5,1.1,3.7
				c0.5,1.2,1.1,2.3,1.9,3.3c0.8,1,1.7,2,2.7,3c1,1,2.1,1.8,3.3,2.5c1.2,0.7,2.4,1.3,3.6,1.8c1.3,0.5,2.6,0.8,4,1.1
				c1.4,0.2,2.9,0.4,4.4,0.4h8.5V79.1h-7c-1.4,0-2.6-0.2-3.8-0.7c-1.2-0.5-2.3-1.2-3.2-2c-0.9-0.9-1.6-1.9-2.1-3.1
				c-0.5-1.2-0.7-2.4-0.7-3.8V39.7v-0.4v-1.1h1.1h0.4h15.3V27h-15.3h-0.4H182V26v-0.4V13.8h-13.3v11.8V26V27h-1.1h-0.4h-8.1V38.3z"
				/>
			<path class="st0" d="M346.2,120.8V87.8V87v-2.3l1.8,1.4l0.6,0.5c1.4,1.2,2.9,2.2,4.4,3c1.5,0.9,3.1,1.6,4.7,2.2
				c1.6,0.6,3.3,1,5,1.3c1.7,0.3,3.5,0.4,5.3,0.4c4.5,0,8.6-0.8,12.3-2.4c1.9-0.8,3.6-1.8,5.3-3c1.7-1.2,3.3-2.6,4.8-4.2l0.2-0.2
				c1.4-1.6,2.7-3.3,3.8-5c1.1-1.8,2.1-3.8,2.8-5.8c0.8-2,1.3-4.2,1.7-6.4c0.4-2.2,0.6-4.6,0.6-7.1c0-2.5-0.2-4.9-0.6-7.1
				c-0.4-2.3-0.9-4.4-1.7-6.4c-0.7-2-1.7-3.9-2.8-5.8c-1.1-1.8-2.5-3.5-4-5.2l0,0c-1.5-1.6-3.1-3.1-4.8-4.3
				c-1.7-1.2-3.5-2.2-5.3-3.1c-1.9-0.8-3.8-1.4-5.8-1.8c-2-0.4-4.2-0.6-6.4-0.6c-1.8,0-3.6,0.1-5.3,0.4c-1.7,0.3-3.4,0.7-5,1.3
				c-1.6,0.6-3.2,1.3-4.7,2.2c-1.5,0.9-3,1.9-4.4,3l-0.6,0.5l-1.8,1.4v-2.3v-0.8V27H333v93.8H346.2L346.2,120.8z M453.9,40.6
				L453.9,40.6c-0.5-2.1-1.2-4.1-2.3-5.8c-1.3-2-2.9-3.8-4.9-5.2c-2.1-1.5-4.6-2.6-7.4-3.4c-2.8-0.8-6-1.2-9.5-1.2
				c-3.9,0-7.4,0.4-10.6,1.3c-3,0.9-5.7,2.2-7.8,3.9c-2,1.6-3.6,3.7-4.7,6.1c-1,2.4-1.6,5.1-1.6,8.2c0,2.2,0.3,4.2,0.8,6
				c0.6,1.7,1.4,3.3,2.6,4.7c1.2,1.4,2.7,2.6,4.6,3.8c1.9,1.1,4.3,2.1,7,3.1l0.5,0.2l13.4,4.2l0,0l0,0l0,0c1.3,0.4,2.5,0.9,3.5,1.4
				c1,0.5,1.9,1.1,2.6,1.7c0.8,0.7,1.4,1.4,1.8,2.2c0.4,0.8,0.6,1.7,0.6,2.6c0,1.3-0.3,2.4-1,3.4c-0.6,1-1.6,1.9-2.7,2.6
				c-1.1,0.7-2.4,1.2-3.9,1.5c-1.5,0.3-3.1,0.5-4.8,0.5c-1.9,0-3.6-0.2-5.2-0.6c-1.6-0.4-3.1-1-4.4-1.8c-1.3-0.8-2.3-1.7-3.2-2.8
				c-0.7-0.8-1.2-1.8-1.5-2.8l-12.4,1.8c0.5,2.4,1.4,4.6,2.6,6.5c1.4,2.2,3.2,4.1,5.4,5.7h0c2.2,1.6,4.9,2.8,8,3.7
				c3.1,0.8,6.5,1.3,10.3,1.3c3.9,0,7.5-0.5,10.7-1.4c3.1-0.9,5.8-2.2,8-4c2.1-1.7,3.8-3.7,4.9-6.2c1.1-2.4,1.7-5.1,1.7-8.2
				c0-2.3-0.3-4.3-0.9-6.2c-0.6-1.8-1.6-3.5-2.9-5c-1.3-1.5-3-2.9-5.1-4.2c-2.1-1.3-4.7-2.4-7.7-3.5l-0.5-0.2l-13.4-4.5l0,0
				c-1.1-0.4-2-0.8-2.9-1.3c-0.9-0.5-1.6-1-2.1-1.5c-0.6-0.6-1.1-1.2-1.4-1.9c-0.3-0.7-0.5-1.4-0.5-2.2c0-1.2,0.3-2.2,0.9-3.1
				c0.6-0.9,1.4-1.7,2.4-2.4c1-0.6,2.2-1.1,3.5-1.4c1.3-0.3,2.7-0.5,4.2-0.5c1.7,0,3.3,0.2,4.7,0.5c1.4,0.3,2.7,0.8,3.8,1.4
				c1.1,0.6,2,1.4,2.8,2.3c0.6,0.7,1.1,1.5,1.4,2.3L453.9,40.6L453.9,40.6z M380,44.4L380,44.4c0.9,1,1.8,2.1,2.5,3.2l0,0
				c0.7,1.1,1.3,2.3,1.8,3.5c0.5,1.2,0.8,2.5,1.1,3.9c0.2,1.4,0.4,2.8,0.4,4.3c0,1.5-0.1,2.9-0.4,4.3c-0.2,1.4-0.6,2.7-1.1,3.9
				c-0.5,1.2-1.1,2.4-1.8,3.5l0,0c-0.7,1.1-1.5,2.2-2.5,3.2c-0.9,1-1.9,1.9-3,2.7c-1.1,0.8-2.2,1.4-3.3,1.9
				c-1.2,0.5-2.4,0.9-3.7,1.1c-1.3,0.2-2.6,0.4-3.9,0.4c-1.4,0-2.7-0.1-3.9-0.4c-1.3-0.2-2.5-0.6-3.7-1.1c-1.2-0.5-2.3-1.1-3.3-1.9
				c-1.1-0.8-2.1-1.6-3-2.7c-0.9-1-1.8-2.1-2.5-3.2c-0.7-1.1-1.3-2.3-1.7-3.6c-0.5-1.2-0.8-2.5-1-3.9c-0.2-1.4-0.3-2.8-0.3-4.2
				c0-1.5,0.1-2.9,0.3-4.2c0.2-1.4,0.6-2.7,1-3.9c0.5-1.3,1.1-2.4,1.7-3.6c0.7-1.1,1.5-2.2,2.5-3.2c0.9-1,1.9-1.9,3-2.7
				c1.1-0.8,2.2-1.4,3.3-1.9c1.2-0.5,2.4-0.9,3.7-1.1c1.3-0.2,2.6-0.4,3.9-0.4c1.4,0,2.7,0.1,3.9,0.4c1.3,0.2,2.5,0.6,3.7,1.1
				c1.2,0.5,2.3,1.1,3.3,1.9C378,42.6,379,43.4,380,44.4z"/>
			<path class="st1" d="M257.3,88.6c1.6-1,3.1-2.2,4.5-3.5l-9.2-9.2c-0.8,0.7-1.6,1.4-2.5,2c-1.2,0.8-2.4,1.5-3.7,2
				c-1.3,0.5-2.7,1-4.1,1.2c-1.4,0.3-2.8,0.4-4.3,0.4c-6,0-11.4-2.4-15.4-6.4c-2-2-3.6-4.4-4.7-7.1c-1.1-2.6-1.6-5.4-1.6-8.3
				c0-6,2.4-11.4,6.4-15.4c2-2,4.4-3.6,7.1-4.7c2.6-1.1,5.4-1.7,8.3-1.7c1.6,0,3.2,0.2,4.6,0.4c1.4,0.3,2.8,0.7,4,1.3
				c1.3,0.6,2.5,1.4,3.8,2.3c1.2,0.9,2.4,2,3.6,3.2l25.1,25.1l9.2-9.2L263.2,36l0,0c-1.7-1.7-3.5-3.3-5.4-4.6
				c-1.9-1.3-3.8-2.5-5.9-3.5c-2.1-1-4.3-1.7-6.7-2.2c-2.3-0.5-4.8-0.8-7.4-0.8c-4.7,0-9.2,0.9-13.3,2.6c-4.2,1.8-8.1,4.3-11.3,7.6
				c-3.2,3.2-5.8,7-7.6,11.3c-1.7,4.1-2.6,8.6-2.6,13.3c0,4.7,0.9,9.2,2.6,13.3c1.8,4.2,4.3,8.1,7.6,11.3c3.2,3.2,7,5.8,11.3,7.6
				c4.1,1.7,8.6,2.6,13.3,2.6c2.3,0,4.5-0.2,6.7-0.7c2.2-0.5,4.4-1.1,6.5-2C253.3,91,255.4,89.9,257.3,88.6z"/>
		</g>
		<path class="st2" d="M470.6,89c-1.6-1.6-2.4-3.6-2.4-6c0-2.4,0.8-4.4,2.4-6c1.6-1.6,3.6-2.4,6-2.4c2.3,0,4.3,0.8,5.9,2.4
			c1.6,1.6,2.4,3.6,2.4,6c0,2.4-0.8,4.4-2.4,6c-1.6,1.6-3.6,2.4-5.9,2.4C474.2,91.4,472.2,90.6,470.6,89z"/>
		<path class="st2" d="M512.2,5.3v85.3H499V5.3H512.2z"/>
		<path class="st2" d="M530.2,16.3c-1.6-1.6-2.4-3.6-2.4-6s0.8-4.4,2.4-6c1.6-1.6,3.6-2.4,6-2.4c2.3,0,4.3,0.8,5.9,2.4
			s2.4,3.6,2.4,6s-0.8,4.4-2.4,6s-3.6,2.4-5.9,2.4C533.8,18.7,531.8,17.9,530.2,16.3z"/>
		<rect x="529.5" y="27.1" class="st2" width="13.1" height="63.5"/>
		<path class="st2" d="M584.5,78.9l18-51.8h14.2l-24.2,63.5h-15.9l-24.1-63.5h14.1L584.5,78.9z"/>
		<path class="st2" d="M684.5,57.1c0-6.1-1.3-11.5-3.9-16.1c-2.6-4.7-6.3-8.3-11-11c-4.7-2.6-10-3.9-16-3.9c-6.2,0-11.7,1.3-16.5,4
			c-4.8,2.7-8.5,6.5-11.2,11.5c-2.7,5-4,10.7-4,17.2s1.4,12.3,4.1,17.2c2.7,5,6.5,8.8,11.3,11.5c4.8,2.7,10.2,4.1,16.3,4.1
			c7.5,0,13.7-1.9,18.7-5.6s8.5-8.5,10.4-14.4h-14.2c-2.9,5.9-7.9,8.9-15,8.9c-5,0-9.2-1.6-12.6-4.7c-3.4-3.1-5.3-7.3-5.6-12.6h48.6
			C684.4,61.4,684.5,59.3,684.5,57.1z M635.5,53.8c0.5-5.1,2.4-9.2,5.7-12.2c3.3-3,7.2-4.5,11.8-4.5c5.1,0,9.3,1.5,12.6,4.5
			c3.3,3,5.1,7.1,5.1,12.2H635.5z"/>
	</g>
	<g>
		<path class="st2" d="M45.6,137.2c2.2,1.1,3.9,2.8,5.1,4.9c1.2,2.1,1.8,4.6,1.8,7.4c0,2.8-0.6,5.3-1.8,7.3
			c-1.2,2.1-2.9,3.7-5.1,4.8c-2.2,1.1-4.8,1.7-7.8,1.7h-9.1v-27.7h9.1C40.7,135.5,43.3,136.1,45.6,137.2z M45.2,157.1
			c1.7-1.8,2.6-4.3,2.6-7.5c0-3.2-0.9-5.7-2.6-7.6c-1.7-1.8-4.2-2.7-7.4-2.7h-4.5v20.6h4.5C41,159.8,43.5,158.9,45.2,157.1z"/>
		<path class="st2" d="M76,157.6H64.4l-2,5.7h-4.7l9.9-27.8h5.3l9.9,27.8H78L76,157.6z M74.7,154.1l-4.5-13l-4.6,13H74.7z"/>
		<path class="st2" d="M107.2,135.5v3.6h-7.4v24.2h-4.5v-24.2h-7.4v-3.6H107.2z"/>
		<path class="st2" d="M130.8,157.6h-11.6l-2,5.7h-4.7l9.9-27.8h5.3l9.9,27.8h-4.8L130.8,157.6z M129.5,154.1l-4.5-13l-4.6,13H129.5
			z"/>
		<path class="st2" d="M176.7,147.8c-0.7,1.3-1.7,2.3-3.2,3.1c-1.5,0.8-3.3,1.2-5.6,1.2h-5v11.3h-4.5v-27.7h9.6
			c2.1,0,3.9,0.4,5.4,1.1c1.5,0.7,2.6,1.7,3.3,3c0.7,1.3,1.1,2.6,1.1,4.2C177.7,145.2,177.4,146.5,176.7,147.8z M171.7,147.2
			c0.9-0.8,1.3-2,1.3-3.4c0-1.5-0.4-2.6-1.3-3.5c-0.9-0.8-2.1-1.2-3.9-1.2h-5v9.4h5C169.6,148.5,170.9,148.1,171.7,147.2z"/>
		<path class="st2" d="M198.7,163.3l-6.4-11.1h-3.5v11.1h-4.5v-27.7h9.6c2.1,0,3.9,0.4,5.4,1.1s2.6,1.7,3.3,3
			c0.7,1.3,1.1,2.6,1.1,4.2c0,1.8-0.5,3.5-1.6,4.9c-1.1,1.5-2.7,2.5-4.8,3l6.9,11.5H198.7z M188.8,148.6h5c1.7,0,3-0.4,3.9-1.3
			c0.9-0.9,1.3-2,1.3-3.5c0-1.5-0.4-2.7-1.3-3.5c-0.9-0.8-2.1-1.3-3.9-1.3h-5V148.6z"/>
		<path class="st2" d="M217.3,161.7c-2.2-1.2-3.9-2.9-5.1-5.1c-1.3-2.2-1.9-4.6-1.9-7.3c0-2.7,0.6-5.1,1.9-7.3c1.3-2.2,3-3.8,5.1-5
			c2.2-1.2,4.5-1.8,7.1-1.8c2.6,0,5,0.6,7.2,1.8c2.2,1.2,3.9,2.9,5.1,5c1.2,2.2,1.9,4.6,1.9,7.3c0,2.7-0.6,5.2-1.9,7.3
			c-1.3,2.2-3,3.9-5.1,5.1c-2.2,1.2-4.6,1.8-7.2,1.8C221.8,163.6,219.4,163,217.3,161.7z M229.3,158.2c1.4-0.8,2.6-2,3.4-3.6
			c0.8-1.5,1.2-3.3,1.2-5.3s-0.4-3.8-1.2-5.3c-0.8-1.5-1.9-2.7-3.4-3.5c-1.4-0.8-3.1-1.2-4.9-1.2c-1.8,0-3.5,0.4-4.9,1.2
			c-1.4,0.8-2.6,2-3.4,3.5c-0.8,1.5-1.2,3.3-1.2,5.3s0.4,3.8,1.2,5.3c0.8,1.5,1.9,2.7,3.4,3.6s3.1,1.3,4.9,1.3
			C226.2,159.4,227.9,159,229.3,158.2z"/>
		<path class="st2" d="M262.1,137.2c2.2,1.1,3.9,2.8,5.1,4.9c1.2,2.1,1.8,4.6,1.8,7.4c0,2.8-0.6,5.3-1.8,7.3
			c-1.2,2.1-2.9,3.7-5.1,4.8c-2.2,1.1-4.8,1.7-7.8,1.7h-9.1v-27.7h9.1C257.3,135.5,259.8,136.1,262.1,137.2z M261.7,157.1
			c1.7-1.8,2.6-4.3,2.6-7.5c0-3.2-0.9-5.7-2.6-7.6c-1.7-1.8-4.2-2.7-7.4-2.7h-4.5v20.6h4.5C257.5,159.8,260,158.9,261.7,157.1z"/>
		<path class="st2" d="M280.3,135.5v17.6c0,2.1,0.6,3.7,1.7,4.7c1.1,1.1,2.6,1.6,4.6,1.6c2,0,3.5-0.5,4.6-1.6
			c1.1-1.1,1.7-2.6,1.7-4.7v-17.6h4.5v17.6c0,2.3-0.5,4.2-1.5,5.7c-1,1.6-2.3,2.7-4,3.5c-1.6,0.8-3.5,1.2-5.5,1.2s-3.8-0.4-5.4-1.2
			c-1.6-0.8-2.9-1.9-3.9-3.5c-1-1.6-1.4-3.5-1.4-5.7v-17.6H280.3z"/>
		<path class="st2" d="M305.9,142.1c1.3-2.2,3-3.8,5.1-5c2.2-1.2,4.5-1.8,7.1-1.8c3,0,5.6,0.7,7.9,2.2c2.3,1.5,4,3.5,5,6.2h-5.5
			c-0.7-1.4-1.7-2.4-3-3.1c-1.3-0.7-2.8-1.1-4.4-1.1c-1.8,0-3.5,0.4-4.9,1.2c-1.4,0.8-2.6,2-3.4,3.5c-0.8,1.5-1.2,3.3-1.2,5.3
			s0.4,3.8,1.2,5.3c0.8,1.5,1.9,2.7,3.4,3.5s3.1,1.2,4.9,1.2c1.7,0,3.2-0.4,4.4-1.1c1.3-0.7,2.3-1.7,3-3.1h5.5c-1,2.7-2.7,4.7-5,6.1
			c-2.3,1.4-4.9,2.2-7.9,2.2c-2.6,0-5-0.6-7.1-1.8c-2.2-1.2-3.9-2.9-5.1-5c-1.3-2.2-1.9-4.6-1.9-7.3
			C304,146.6,304.7,144.2,305.9,142.1z"/>
		<path class="st2" d="M356.5,135.5v3.6h-7.4v24.2h-4.5v-24.2h-7.4v-3.6H356.5z"/>
		<path class="st2" d="M367.5,162.6c-1.5-0.7-2.7-1.6-3.5-2.8c-0.9-1.2-1.3-2.6-1.3-4.2h4.9c0.1,1.3,0.6,2.3,1.4,3.1s2,1.2,3.5,1.2
			c1.6,0,2.8-0.4,3.7-1.2c0.9-0.8,1.3-1.8,1.3-3.1c0-0.9-0.3-1.7-0.8-2.3c-0.5-0.6-1.2-1-2-1.4c-0.8-0.3-1.9-0.7-3.4-1
			c-1.8-0.5-3.3-1-4.4-1.5c-1.1-0.5-2.1-1.3-2.9-2.3c-0.8-1-1.2-2.4-1.2-4.2c0-1.6,0.4-3,1.2-4.2s1.9-2.1,3.4-2.8c1.4-0.6,3.1-1,5-1
			c2.7,0,4.9,0.7,6.6,2c1.7,1.3,2.7,3.2,2.9,5.5h-5c-0.1-1.1-0.6-2-1.4-2.7c-0.9-0.7-2-1.1-3.5-1.1c-1.3,0-2.4,0.3-3.2,1
			c-0.8,0.7-1.2,1.7-1.2,3c0,0.9,0.3,1.5,0.8,2.1c0.5,0.5,1.2,1,2,1.3c0.8,0.3,1.9,0.7,3.3,1c1.8,0.5,3.3,1,4.5,1.5
			c1.2,0.5,2.1,1.3,3,2.3c0.8,1.1,1.2,2.5,1.2,4.2c0,1.4-0.4,2.7-1.1,4c-0.8,1.3-1.9,2.3-3.3,3c-1.5,0.8-3.2,1.1-5.1,1.1
			C370.6,163.6,369,163.2,367.5,162.6z"/>
		<path class="st2" d="M420.7,137.2c2.2,1.1,3.9,2.8,5.1,4.9c1.2,2.1,1.8,4.6,1.8,7.4c0,2.8-0.6,5.3-1.8,7.3
			c-1.2,2.1-2.9,3.7-5.1,4.8c-2.2,1.1-4.8,1.7-7.8,1.7h-9.1v-27.7h9.1C415.9,135.5,418.5,136.1,420.7,137.2z M420.4,157.1
			c1.7-1.8,2.6-4.3,2.6-7.5c0-3.2-0.9-5.7-2.6-7.6c-1.7-1.8-4.2-2.7-7.4-2.7h-4.5v20.6h4.5C416.2,159.8,418.7,158.9,420.4,157.1z"/>
		<path class="st2" d="M440,161.7c-2.2-1.2-3.9-2.9-5.1-5.1c-1.3-2.2-1.9-4.6-1.9-7.3c0-2.7,0.6-5.1,1.9-7.3c1.3-2.2,3-3.8,5.1-5
			c2.2-1.2,4.5-1.8,7.1-1.8c2.6,0,5,0.6,7.2,1.8c2.2,1.2,3.9,2.9,5.1,5c1.2,2.2,1.9,4.6,1.9,7.3c0,2.7-0.6,5.2-1.9,7.3
			c-1.3,2.2-3,3.9-5.1,5.1c-2.2,1.2-4.6,1.8-7.2,1.8C444.5,163.6,442.1,163,440,161.7z M452,158.2c1.4-0.8,2.6-2,3.4-3.6
			c0.8-1.5,1.2-3.3,1.2-5.3s-0.4-3.8-1.2-5.3c-0.8-1.5-1.9-2.7-3.4-3.5c-1.4-0.8-3.1-1.2-4.9-1.2c-1.8,0-3.5,0.4-4.9,1.2
			c-1.4,0.8-2.6,2-3.4,3.5c-0.8,1.5-1.2,3.3-1.2,5.3s0.4,3.8,1.2,5.3c0.8,1.5,1.9,2.7,3.4,3.6s3.1,1.3,4.9,1.3
			C448.9,159.4,450.5,159,452,158.2z"/>
		<path class="st2" d="M490.7,163.3h-4.5l-13.7-20.7v20.7h-4.5v-27.8h4.5l13.7,20.7v-20.7h4.5V163.3z"/>
		<path class="st2" d="M503.5,139.1v8.4h9.6v3.5h-9.6v8.7h10.8v3.6H499v-27.8h15.3v3.6H503.5z"/>
		<path class="st2" d="M550.7,163.3l-6.4-11.1h-3.5v11.1h-4.5v-27.7h9.6c2.1,0,3.9,0.4,5.4,1.1s2.6,1.7,3.3,3
			c0.7,1.3,1.1,2.6,1.1,4.2c0,1.8-0.5,3.5-1.6,4.9c-1.1,1.5-2.7,2.5-4.8,3l6.9,11.5H550.7z M540.8,148.6h5c1.7,0,3-0.4,3.9-1.3
			c0.9-0.9,1.3-2,1.3-3.5c0-1.5-0.4-2.7-1.3-3.5c-0.9-0.8-2.1-1.3-3.9-1.3h-5V148.6z"/>
		<path class="st2" d="M568.3,135.5v27.7h-4.5v-27.7H568.3z"/>
		<path class="st2" d="M576.9,142.1c1.3-2.2,3-3.8,5.1-5c2.2-1.2,4.5-1.8,7.1-1.8c3,0,5.6,0.7,7.9,2.2c2.3,1.5,4,3.5,5,6.2h-5.5
			c-0.7-1.4-1.7-2.4-3-3.1c-1.3-0.7-2.8-1.1-4.4-1.1c-1.8,0-3.5,0.4-4.9,1.2c-1.4,0.8-2.6,2-3.4,3.5c-0.8,1.5-1.2,3.3-1.2,5.3
			s0.4,3.8,1.2,5.3c0.8,1.5,1.9,2.7,3.4,3.5s3.1,1.2,4.9,1.2c2.5,0,4.5-0.7,6-2.1s2.5-3.3,2.8-5.7h-10.4v-3.6h15.3v3.6
			c-0.3,2.2-1.1,4.1-2.3,5.9s-2.8,3.3-4.8,4.3c-2,1.1-4.2,1.6-6.6,1.6c-2.6,0-5-0.6-7.1-1.8c-2.2-1.2-3.9-2.9-5.1-5
			c-1.3-2.2-1.9-4.6-1.9-7.3C575,146.6,575.6,144.2,576.9,142.1z"/>
		<path class="st2" d="M631.7,135.5v27.7h-4.5V151h-13v12.2h-4.5v-27.7h4.5v12h13v-12H631.7z"/>
		<path class="st2" d="M657.9,135.5v3.6h-7.4v24.2H646v-24.2h-7.4v-3.6H657.9z"/>
	</g>
</g>
</svg>
